<?xml version="1.0" encoding="UTF-8"?>
<svg version="1.1" xmlns="http://www.w3.org/2000/svg" width="512" height="512">
<path d="M0 0 C1.3365287 -0.01469078 1.3365287 -0.01469078 2.70005798 -0.02967834 C31.02930163 -0.27680589 57.17994109 2.00410905 84.4453125 10.23828125 C85.69803955 10.61460693 85.69803955 10.61460693 86.97607422 10.99853516 C113.72287759 19.23606323 138.56658543 32.86305859 160.4453125 50.23828125 C161.31800781 50.91890625 162.19070313 51.59953125 163.08984375 52.30078125 C213.1610795 92.18182407 244.28196368 150.07860416 251.97583008 213.45776367 C252.49531749 218.24021438 252.63971312 222.98519736 252.68359375 227.79296875 C252.6933876 228.68398788 252.70318146 229.57500702 252.71327209 230.49302673 C253.23397222 290.18301748 237.46998542 346.91861502 198.4453125 393.23828125 C198.00074707 393.77163086 197.55618164 394.30498047 197.09814453 394.85449219 C188.22536736 405.48522354 179.07675597 415.36819695 168.21484375 424.02734375 C166.40012249 425.47604929 164.60476024 426.94942113 162.83203125 428.44921875 C121.52207816 463.33317913 66.69507132 480.72710773 13.1328125 480.61328125 C12.16687164 480.61273743 11.20093079 480.6121936 10.20571899 480.6116333 C-5.69146444 480.57060916 -20.9742443 479.64585488 -36.5546875 476.23828125 C-37.54082031 476.02397461 -38.52695313 475.80966797 -39.54296875 475.58886719 C-80.68601851 466.32763679 -118.66455293 447.01341561 -149.5546875 418.23828125 C-150.94613416 417.02489906 -152.34177389 415.81630322 -153.7421875 414.61328125 C-160.23579506 408.92488103 -165.82997583 402.84849748 -171.23828125 396.11328125 C-172.72964128 394.26228465 -174.24130496 392.42737276 -175.77734375 390.61328125 C-186.48593264 377.92162035 -194.84788293 363.9027082 -202.5546875 349.23828125 C-202.90241211 348.58762695 -203.25013672 347.93697266 -203.60839844 347.26660156 C-214.77726192 326.11658788 -221.86063665 301.78641992 -225.5546875 278.23828125 C-225.73725098 277.08271729 -225.91981445 275.92715332 -226.10791016 274.73657227 C-227.70824137 263.46656388 -227.95385383 252.29750635 -227.9296875 240.92578125 C-227.92914368 239.95984039 -227.92859985 238.99389954 -227.92803955 237.99868774 C-227.88701541 222.10150431 -226.96226113 206.81872445 -223.5546875 191.23828125 C-223.34038086 190.25214844 -223.12607422 189.26601562 -222.90527344 188.25 C-213.64404304 147.10695024 -194.32982186 109.12841582 -165.5546875 78.23828125 C-164.34130531 76.84683459 -163.13270947 75.45119486 -161.9296875 74.05078125 C-123.16385022 29.67058133 -58.73818865 0.53610464 0 0 Z M-120.8671875 115.48828125 C-132.07831168 129.07752268 -131.8565634 144.60517257 -131.81347656 161.38256836 C-131.81619247 163.1745569 -131.81975674 164.96654432 -131.82409668 166.75852966 C-131.83315236 171.58915256 -131.82970461 176.41968927 -131.82333851 181.25031352 C-131.81824218 186.32862613 -131.82298007 191.40693182 -131.82611084 196.48524475 C-131.82974029 205.01125399 -131.82497861 213.53722847 -131.81542969 222.06323242 C-131.80455062 231.88972954 -131.80807089 241.71614361 -131.8190825 251.54263872 C-131.82818874 260.0109973 -131.82942428 268.47933103 -131.82420516 276.94769293 C-131.8211033 281.99159546 -131.82062658 287.0354591 -131.82727814 292.07935905 C-131.8330996 296.82451915 -131.82896782 301.56957329 -131.81748962 306.31472206 C-131.81486836 308.04557495 -131.81556416 309.77643692 -131.82001495 311.50728607 C-131.8676341 331.92435897 -129.97065326 348.45172187 -115.75 364.2421875 C-105.41331996 374.15741492 -91.70377095 378.56743157 -77.64320374 378.49897766 C-76.79319068 378.50280321 -75.94317762 378.50662876 -75.06740659 378.51057023 C-72.24417334 378.52081647 -69.42114665 378.51692414 -66.59790039 378.51293945 C-64.56356113 378.51729053 -62.52922351 378.522475 -60.49488831 378.52842712 C-54.98664246 378.54178485 -49.47846537 378.54239945 -43.9702065 378.53986382 C-39.36537866 378.53879205 -34.76056461 378.54368269 -30.15573972 378.54846925 C-19.28976971 378.559553 -8.42383426 378.56000802 2.44213867 378.55395508 C13.63875838 378.54791373 24.83525247 378.56023304 36.03185076 378.58152515 C45.65844393 378.59915614 55.28499717 378.60514019 64.91160589 378.6018874 C70.65522115 378.60007701 76.39874676 378.60268661 82.14234734 378.61660194 C87.54408967 378.62920021 92.94563645 378.62721717 98.34737587 378.61419106 C100.3250167 378.6118302 102.30267138 378.61454229 104.28029633 378.62281418 C119.23703898 378.68084375 132.06732582 377.81150199 143.67578125 367.19921875 C158.28482637 351.68567365 156.7627721 333.21137434 156.4453125 313.23828125 C154.70628662 313.21640747 154.70628662 313.21640747 152.93212891 313.1940918 C148.58938295 313.13567826 144.24713239 313.05845163 139.90478516 312.97583008 C138.03312277 312.94278178 136.16136553 312.91468875 134.28955078 312.8918457 C119.29457166 312.70390863 106.94642228 312.13853033 95.46875 301.38671875 C85.779223 291.03747927 84.97933729 280.00405233 85.16796875 266.47265625 C85.54652222 255.85809242 89.80119578 248.08591179 97.0703125 240.5546875 C105.39598653 232.82645767 114.71338423 231.13778585 125.68359375 230.921875 C126.56436081 230.9010939 127.44512787 230.88031281 128.35258484 230.85890198 C131.15425129 230.79374188 133.95600807 230.73467804 136.7578125 230.67578125 C138.66211856 230.6325641 140.56641562 230.58894881 142.47070312 230.54492188 C147.12881468 230.43809502 151.78701672 230.33673385 156.4453125 230.23828125 C156.49517017 225.15203236 156.53124636 220.06592928 156.55517578 214.97949219 C156.56516349 213.25322996 156.57875833 211.52698434 156.59619141 209.80078125 C157.05024082 190.04895536 157.05024082 190.04895536 147.65625 173.29296875 C140.40570386 166.38906227 132.57048647 164.77848386 122.77455139 164.87319946 C121.84286729 164.87008047 120.91118318 164.86696147 119.95126623 164.86374795 C116.85154041 164.85684328 113.75228345 164.87109752 110.65258789 164.88525391 C108.42120779 164.88442251 106.18982784 164.88220449 103.95845032 164.87870789 C99.16383072 164.87376774 94.36933366 164.87783698 89.5747242 164.88872147 C81.98909098 164.90510919 74.40361075 164.89660415 66.81797791 164.88388062 C56.17983289 164.86803609 45.54171923 164.85901427 34.90356445 164.859375 C34.2294169 164.85939244 33.55526935 164.85940988 32.86069309 164.85942785 C25.34029191 164.85988002 17.81989739 164.86320818 10.29949951 164.87030029 C9.28533419 164.87124887 9.28533419 164.87124887 8.25068068 164.8722166 C7.23750337 164.87316545 7.23750337 164.87316545 6.20385784 164.87413347 C4.84171578 164.87540325 3.47957371 164.87666866 2.11743164 164.87792969 C1.44441519 164.87855788 0.77139874 164.87918607 0.07798786 164.8798333 C-11.16148974 164.88980199 -22.40085901 164.88015842 -33.64032179 164.85574567 C-41.17685822 164.8405252 -48.71292267 164.84797465 -56.24942958 164.87245584 C-60.94260731 164.88254062 -65.63556947 164.87181983 -70.328722 164.85534096 C-72.49987282 164.85189528 -74.67105695 164.85696084 -76.84216309 164.87130928 C-98.61539879 165.0062637 -98.61539879 165.0062637 -105.5546875 159.23828125 C-111.21523792 153.16375229 -111.92728946 147.55842802 -111.8203125 139.53515625 C-111.45236621 134.96829348 -110.55495461 131.73991925 -107.5546875 128.23828125 C-101.1102329 122.84622382 -96.18307662 121.11342136 -87.84327698 121.1137085 C-87.16960097 121.11229835 -86.49592496 121.1108882 -85.80183452 121.10943532 C-83.54568439 121.10578694 -81.2895973 121.10911683 -79.03344727 121.11230469 C-77.41537426 121.11090968 -75.79730162 121.10901021 -74.17922974 121.10664368 C-70.69523894 121.10214871 -67.21125993 121.10029064 -63.72726631 121.10018158 C-58.2185327 121.09904118 -52.7098661 121.08620307 -47.20115662 121.07061768 C-45.80659842 121.0667584 -45.80659842 121.0667584 -44.38386732 121.06282115 C-42.48287259 121.05755473 -40.58187791 121.05226925 -38.68088329 121.04696512 C-25.85649956 121.01184814 -13.03219948 120.9853059 -0.20776367 120.98779297 C8.44396282 120.98938062 17.09546062 120.9733699 25.74711376 120.93708634 C30.32539205 120.91861246 34.90328842 120.90929603 39.48159599 120.92156219 C43.78689234 120.93298557 48.09150423 120.92132705 52.39670944 120.89192772 C53.97651875 120.88527914 55.55639056 120.88716772 57.13617516 120.89822578 C59.29390979 120.91207627 61.44932658 120.89523309 63.60691833 120.87078857 C65.41736208 120.86858873 65.41736208 120.86858873 67.26438046 120.86634445 C71.36088591 120.05750468 72.83973716 118.42683329 75.4453125 115.23828125 C76.8535442 111.80571649 76.56476088 110.55890584 75.2578125 107.05078125 C73.31600832 104.03763684 72.70691219 103.4268665 69.4453125 102.23828125 C66.29205968 101.93408094 66.29205968 101.93408094 62.72958374 101.97758484 C62.05535201 101.97375929 61.38112027 101.96993374 60.68645728 101.96599227 C58.42809914 101.95567705 56.16999596 101.95965163 53.91162109 101.96362305 C52.29180669 101.95927555 50.67199434 101.95409227 49.05218506 101.94813538 C44.65104127 101.93473302 40.2499833 101.93416845 35.84882307 101.93669868 C32.17127212 101.93776831 28.49373854 101.93288482 24.81619132 101.92809325 C16.13412086 101.91699217 7.45209366 101.91656297 -1.22998047 101.92260742 C-10.17310466 101.92863826 -19.11607117 101.91636025 -28.05916846 101.89503735 C-35.74512692 101.87738863 -43.43103537 101.87142545 -51.11701334 101.8746751 C-55.70376072 101.87648408 -60.29039582 101.87389094 -64.87712479 101.85996056 C-69.19621397 101.84733484 -73.51505893 101.84937095 -77.83414459 101.86237144 C-79.41347971 101.8647271 -80.99283226 101.86203905 -82.57214737 101.85374832 C-97.57611216 101.78070802 -110.19058798 104.15065399 -120.8671875 115.48828125 Z M-86.3046875 136.48828125 C-88.15275431 139.07557478 -88.42831695 141.07901759 -88.5546875 144.23828125 C-86.78419713 148.46778601 -84.6027089 150.22396138 -80.5546875 152.23828125 C-77.57368768 152.68553358 -77.57368768 152.68553358 -74.33044434 152.61923218 C-73.07708786 152.62769165 -71.82373138 152.63615112 -70.53239441 152.64486694 C-69.15115226 152.63903456 -67.7699114 152.63289009 -66.38867188 152.62646484 C-64.92808134 152.63053177 -63.46749388 152.63587432 -62.00691223 152.64239502 C-58.04617823 152.6560602 -54.08567892 152.65077334 -50.12494087 152.64125776 C-45.97794085 152.63365701 -41.83096078 152.64070793 -37.68395996 152.64541626 C-30.7200968 152.6508726 -23.75632913 152.6436854 -16.79248047 152.62939453 C-8.74387825 152.61306822 -0.69550402 152.61835681 7.35309267 152.63487375 C14.26618541 152.64849209 21.17920956 152.65040658 28.09231138 152.64255774 C32.22001094 152.63788313 36.34760337 152.63725052 40.47529602 152.64716721 C44.35611444 152.65583968 48.23663919 152.64981002 52.11742592 152.63248444 C53.54082565 152.62852107 54.96425015 152.62965111 56.38764 152.63627243 C58.33210741 152.64448306 60.27662888 152.63235609 62.22106934 152.61923218 C63.8525806 152.61753556 63.8525806 152.61753556 65.5170517 152.61580467 C69.9681084 152.04195614 72.56390143 150.35473527 75.3203125 146.86328125 C76.60944554 144.33128997 76.60944554 144.33128997 76.4453125 141.73828125 C75.10172929 138.37932322 73.17283925 136.57616132 70.4453125 134.23828125 C67.22919245 133.16624123 64.91941734 133.10984176 61.5375061 133.10456848 C59.68683784 133.09817101 59.68683784 133.09817101 57.79878235 133.09164429 C56.42916867 133.09199381 55.05955501 133.09245535 53.68994141 133.09301758 C52.24935316 133.09002582 50.80876571 133.08662325 49.36817932 133.08283997 C45.45285258 133.07399722 41.53754769 133.07166173 37.62221193 133.07102418 C34.3543237 133.07007505 31.08644056 133.06639668 27.81855428 133.06285208 C20.10852575 133.05470638 12.3985089 133.05226794 4.68847656 133.05297852 C-3.26574023 133.05357926 -11.2198892 133.0430283 -19.17408884 133.02723485 C-26.00219968 133.01416024 -32.83028835 133.00879459 -39.65841162 133.00943393 C-43.73694277 133.00968895 -47.81541366 133.00683543 -51.89393234 132.99625587 C-55.73033182 132.9865763 -59.56661342 132.98649473 -63.40301704 132.99377251 C-64.81029622 132.99481854 -66.21758273 132.99245431 -67.62484932 132.98641205 C-69.54752261 132.97869219 -71.47023604 132.98453629 -73.39291382 132.99104309 C-74.46843695 132.99049832 -75.54396008 132.98995356 -76.65207481 132.98939228 C-80.39075464 133.30997111 -83.25313046 134.30859765 -86.3046875 136.48828125 Z M108.5703125 257.17578125 C103.88630487 263.92626283 103.66699368 270.19241047 104.4453125 278.23828125 C106.12124207 284.20878033 109.43295516 287.76031901 114.4453125 291.23828125 C118.88535877 293.54708519 123.13599702 293.4983123 128.02734375 293.43359375 C129.11082092 293.43057251 129.11082092 293.43057251 130.21618652 293.42749023 C132.89679375 293.41708011 135.57730996 293.3891577 138.2578125 293.36328125 C144.2596875 293.32203125 150.2615625 293.28078125 156.4453125 293.23828125 C156.4453125 279.04828125 156.4453125 264.85828125 156.4453125 250.23828125 C150.5053125 250.15578125 144.5653125 250.07328125 138.4453125 249.98828125 C136.58648437 249.95186523 134.72765625 249.91544922 132.8125 249.87792969 C131.31511586 249.86623137 129.81771885 249.85604226 128.3203125 249.84765625 C127.56234375 249.82719238 126.804375 249.80672852 126.0234375 249.78564453 C119.08435075 249.78117347 113.23447682 251.88177679 108.5703125 257.17578125 Z " fill="#902DFF" transform="translate(243.5546875,15.76171875)"/>
</svg>
